<svg width="8" height="5" viewBox="0 0 8 5" fill="none" xmlns="http://www.w3.org/2000/svg">
<path d="M4.00296 3.09682C4.11787 2.94952 4.17898 2.85295 4.25722 2.77411C5.01695 2.0101 5.78034 1.24976 6.5419 0.486975C6.66659 0.362289 6.79311 0.255328 6.98625 0.255939C7.19039 0.25655 7.3383 0.34212 7.43488 0.516313C7.53328 0.693563 7.518 0.868978 7.4037 1.03339C7.36336 1.09146 7.31141 1.14096 7.26129 1.19169C6.32676 2.12623 5.38428 3.05282 4.46258 3.99957C4.16982 4.30029 3.81776 4.28867 3.5415 4.00568C2.61858 3.06015 1.67732 2.13234 0.741564 1.19903C0.567981 1.02545 0.432294 0.844531 0.536199 0.579879C0.658441 0.268164 1.01539 0.152034 1.29043 0.342119C1.37294 0.398961 1.44262 0.475974 1.51474 0.547485C2.26286 1.29438 3.01097 2.04127 3.75725 2.79061C3.82876 2.86212 3.88499 2.94891 4.00357 3.09743L4.00296 3.09682Z" fill="black"/>
</svg>
