<svg width="12" height="7" viewBox="0 0 12 7" fill="none" xmlns="http://www.w3.org/2000/svg">
  <path d="M6.00507 4.88027C6.20205 4.62775 6.30683 4.4622 6.44095 4.32704C7.74334 3.01731 9.05202 1.71387 10.3576 0.406242C10.5713 0.192495 10.7882 0.00913367 11.1193 0.0101814C11.4692 0.0112292 11.7228 0.15792 11.8884 0.456537C12.057 0.760394 12.0309 1.06111 11.8349 1.34296C11.7658 1.4425 11.6767 1.52737 11.5908 1.61433C9.98873 3.21639 8.37305 4.80483 6.793 6.42784C6.29111 6.94335 5.68759 6.92344 5.21399 6.43832C3.63184 4.8174 2.01826 3.22687 0.414109 1.62691C0.116539 1.32934 -0.116067 1.0192 0.0620561 0.565507C0.271612 0.031139 0.883519 -0.167941 1.35502 0.157919C1.49647 0.255363 1.61592 0.387385 1.73955 0.509975C3.02204 1.79036 4.30452 3.07075 5.58386 4.35533C5.70645 4.47792 5.80284 4.62671 6.00611 4.88132L6.00507 4.88027Z" fill="currentColor"/>
</svg>
