<svg width="15" height="15" viewBox="0 0 15 15" fill="none" xmlns="http://www.w3.org/2000/svg">
<g clip-path="url(#clip0_2636_43362)">
<path d="M12.8125 15H2.1875V2.1875H12.8125V15ZM2.8125 14.375H12.1875V2.8125H2.8125V14.375Z" fill="#E20000"/>
<path d="M10.9375 2.8125H4.0625V0.3125H10.9375V2.8125ZM4.6875 2.1875H10.3125V0.9375H4.6875V2.1875Z" fill="#E20000"/>
<path d="M5 12.8125C4.82719 12.8125 4.6875 12.6728 4.6875 12.5V4.6875C4.6875 4.51469 4.82719 4.375 5 4.375C5.17281 4.375 5.3125 4.51469 5.3125 4.6875V12.5C5.3125 12.6728 5.17281 12.8125 5 12.8125Z" fill="#E20000"/>
<path d="M7.5 12.8125C7.32719 12.8125 7.1875 12.6728 7.1875 12.5V4.6875C7.1875 4.51469 7.32719 4.375 7.5 4.375C7.67281 4.375 7.8125 4.51469 7.8125 4.6875V12.5C7.8125 12.6728 7.67281 12.8125 7.5 12.8125Z" fill="#E20000"/>
<path d="M10 12.8125C9.82719 12.8125 9.6875 12.6728 9.6875 12.5V4.6875C9.6875 4.51469 9.82719 4.375 10 4.375C10.1728 4.375 10.3125 4.51469 10.3125 4.6875V12.5C10.3125 12.6728 10.1728 12.8125 10 12.8125Z" fill="#E20000"/>
<path d="M15 2.1875H0V2.8125H15V2.1875Z" fill="#E20000"/>
</g>
<defs>
<clipPath id="clip0_2636_43362">
<rect width="15" height="15" fill="white"/>
</clipPath>
</defs>
</svg>
