<svg width="24" height="17" viewBox="0 0 24 17" fill="none" xmlns="http://www.w3.org/2000/svg">
<path d="M12 0.25C8.91 0.25 6.48 2.5975 6.14025 5.59375C5.48673 5.69906 4.87385 5.9791 4.36646 6.40423C3.85908 6.82936 3.47608 7.38376 3.258 8.00875C1.413 8.5405 0 10.186 0 12.25C0 14.743 2.007 16.75 4.5 16.75H19.5C21.993 16.75 24 14.743 24 12.25C24 10.93 23.3587 9.748 22.4295 8.9215C22.2555 6.286 20.1532 4.183 17.508 4.0465C16.605 1.84975 14.5335 0.25 12 0.25ZM12 1.75C14.0715 1.75 15.7275 3.0775 16.3125 4.96L16.4775 5.5H17.25C19.3162 5.5 21 7.18375 21 9.25V9.625L21.3045 9.85975C21.672 10.1414 21.9706 10.503 22.1777 10.9171C22.3849 11.3312 22.4951 11.787 22.5 12.25C22.5 13.957 21.207 15.25 19.5 15.25H4.5C2.793 15.25 1.5 13.957 1.5 12.25C1.5 10.735 2.5875 9.559 3.96 9.3205L4.45275 9.22675L4.5465 8.734C4.7715 7.72225 5.667 7 6.75 7H7.5V6.25C7.5 3.7225 9.4725 1.75 12 1.75ZM11.25 5.5V10.4222L9.54 8.71075L8.46 9.79075L11.46 12.7908L12 13.3053L12.54 12.79L15.54 9.79L14.46 8.71L12.75 10.4222V5.5H11.25Z" fill="black"/>
</svg>
