<svg width="20" height="21" viewBox="0 0 20 21" fill="none" xmlns="http://www.w3.org/2000/svg">
<path d="M18.4962 4.12668C19.3721 4.43448 20 5.26891 20 6.25V16.25C20 18.5972 18.0972 20.5 15.75 20.5H5.75C4.76891 20.5 3.93448 19.8721 3.62668 18.9962L5.72396 18.9996L15.75 19C17.2688 19 18.5 17.7688 18.5 16.25V6.25L18.496 6.19902L18.4962 4.12668ZM15.2468 0.5C16.4895 0.5 17.4968 1.50736 17.4968 2.75V15.7468C17.4968 16.9895 16.4895 17.9968 15.2468 17.9968H2.25C1.00736 17.9968 0 16.9895 0 15.7468V2.75C0 1.50736 1.00736 0.5 2.25 0.5H15.2468ZM15.2468 2H2.25C1.83579 2 1.5 2.33579 1.5 2.75V15.7468C1.5 16.161 1.83579 16.4968 2.25 16.4968H15.2468C15.661 16.4968 15.9968 16.161 15.9968 15.7468V2.75C15.9968 2.33579 15.661 2 15.2468 2ZM7.58115 9.8582L11.4697 5.96967C11.7626 5.67678 12.2374 5.67678 12.5303 5.96967C12.7966 6.23594 12.8208 6.6526 12.6029 6.94621L12.5303 7.03033L8.0303 11.5303C7.73449 11.8262 7.26134 11.8189 6.9736 11.5344L6.9 11.45L5.4 9.45C5.15147 9.1186 5.21863 8.6485 5.55 8.4C5.85125 8.17407 6.26715 8.20903 6.527 8.46622L6.6 8.55L7.58115 9.8582Z" fill="#212121"/>
</svg>
