<svg width="21" height="21" viewBox="0 0 21 21" fill="none" xmlns="http://www.w3.org/2000/svg">
<g clip-path="url(#clip0_2413_12312)">
<path d="M7.54688 5.74219C7.99992 5.74219 8.36719 5.37492 8.36719 4.92188C8.36719 4.46883 7.99992 4.10156 7.54688 4.10156C7.09383 4.10156 6.72656 4.46883 6.72656 4.92188C6.72656 5.37492 7.09383 5.74219 7.54688 5.74219Z" fill="#404040" fill-opacity="0.7"/>
<path d="M13.4531 5.74219C13.9062 5.74219 14.2734 5.37492 14.2734 4.92188C14.2734 4.46883 13.9062 4.10156 13.4531 4.10156C13.0001 4.10156 12.6328 4.46883 12.6328 4.92188C12.6328 5.37492 13.0001 5.74219 13.4531 5.74219Z" fill="#404040" fill-opacity="0.7"/>
<path d="M7.54688 11.3203C7.99992 11.3203 8.36719 10.953 8.36719 10.5C8.36719 10.047 7.99992 9.67969 7.54688 9.67969C7.09383 9.67969 6.72656 10.047 6.72656 10.5C6.72656 10.953 7.09383 11.3203 7.54688 11.3203Z" fill="#404040" fill-opacity="0.7"/>
<path d="M13.4531 11.3203C13.9062 11.3203 14.2734 10.953 14.2734 10.5C14.2734 10.047 13.9062 9.67969 13.4531 9.67969C13.0001 9.67969 12.6328 10.047 12.6328 10.5C12.6328 10.953 13.0001 11.3203 13.4531 11.3203Z" fill="#404040" fill-opacity="0.7"/>
<path d="M7.54688 16.8984C7.99992 16.8984 8.36719 16.5312 8.36719 16.0781C8.36719 15.6251 7.99992 15.2578 7.54688 15.2578C7.09383 15.2578 6.72656 15.6251 6.72656 16.0781C6.72656 16.5312 7.09383 16.8984 7.54688 16.8984Z" fill="#404040" fill-opacity="0.7"/>
<path d="M13.4531 16.8984C13.9062 16.8984 14.2734 16.5312 14.2734 16.0781C14.2734 15.6251 13.9062 15.2578 13.4531 15.2578C13.0001 15.2578 12.6328 15.6251 12.6328 16.0781C12.6328 16.5312 13.0001 16.8984 13.4531 16.8984Z" fill="#404040" fill-opacity="0.7"/>
</g>
<defs>
<clipPath id="clip0_2413_12312">
<rect width="21" height="21" fill="white"/>
</clipPath>
</defs>
</svg>
