<svg width="20" height="20" viewBox="0 0 20 20" xmlns="http://www.w3.org/2000/svg">
                <path d="M10 0C4.486 0 0 4.486 0 10C0 15.514 4.486 20 10 20C15.514 20 20 15.514 20 10C20 4.486 15.514 0 10 0ZM10 18C5.589 18 2 14.411 2 10C2 5.589 5.589 2 10 2C14.411 2 18 5.589 18 10C18 14.411 14.411 18 10 18ZM10 4C8.346 4 7 5.346 7 7C7 8.654 8.346 10 10 10C11.654 10 13 8.654 13 7C13 5.346 11.654 4 10 4ZM10 12C8.206 12 4 13.119 4 15V16H16V15C16 13.119 11.794 12 10 12Z" fill="${this.color}"/>
              </svg>