<svg width="27" height="27" viewBox="0 0 27 27" fill="none" xmlns="http://www.w3.org/2000/svg">
<path d="M24.7926 19.9428L15.5683 3.92523C15.3564 3.565 15.0541 3.26634 14.6914 3.05884C14.3286 2.85134 13.918 2.74219 13.5 2.74219C13.0821 2.74219 12.6715 2.85134 12.3087 3.05884C11.9459 3.26634 11.6437 3.565 11.4318 3.92523L2.2075 19.9428C2.00446 20.2903 1.89746 20.6856 1.89746 21.0882C1.89746 21.4907 2.00446 21.886 2.2075 22.2335C2.41653 22.5963 2.71841 22.8969 3.0821 23.1043C3.44578 23.3117 3.85815 23.4185 4.2768 23.4137H22.7233C23.1416 23.4181 23.5535 23.3111 23.9168 23.1037C24.2801 22.8963 24.5816 22.596 24.7905 22.2335C24.9938 21.8862 25.1012 21.491 25.1016 21.0884C25.1019 20.6859 24.9953 20.2905 24.7926 19.9428ZM23.6947 21.5997C23.5961 21.7692 23.4541 21.9093 23.2834 22.0057C23.1127 22.1021 22.9193 22.1513 22.7233 22.1481H4.2768C4.08076 22.1513 3.88742 22.1021 3.71669 22.0057C3.54596 21.9093 3.404 21.7692 3.30543 21.5997C3.21323 21.4446 3.16457 21.2675 3.16457 21.0871C3.16457 20.9067 3.21323 20.7296 3.30543 20.5745L12.5287 4.55699C12.6295 4.38949 12.7719 4.2509 12.9421 4.1547C13.1123 4.0585 13.3045 4.00794 13.5 4.00794C13.6955 4.00794 13.8877 4.0585 14.0579 4.1547C14.2281 4.2509 14.3706 4.38949 14.4714 4.55699L23.6957 20.5745C23.7877 20.7297 23.8362 20.9068 23.836 21.0872C23.8359 21.2677 23.787 21.4447 23.6947 21.5997ZM12.8672 15.1872V10.9684C12.8672 10.8006 12.9339 10.6396 13.0526 10.521C13.1713 10.4023 13.3322 10.3356 13.5 10.3356C13.6679 10.3356 13.8288 10.4023 13.9475 10.521C14.0662 10.6396 14.1329 10.8006 14.1329 10.9684V15.1872C14.1329 15.355 14.0662 15.516 13.9475 15.6346C13.8288 15.7533 13.6679 15.82 13.5 15.82C13.3322 15.82 13.1713 15.7533 13.0526 15.6346C12.9339 15.516 12.8672 15.355 12.8672 15.1872ZM14.5547 18.9841C14.5547 19.1927 14.4929 19.3966 14.377 19.57C14.2611 19.7435 14.0964 19.8786 13.9037 19.9585C13.7109 20.0383 13.4989 20.0592 13.2943 20.0185C13.0897 19.9778 12.9018 19.8773 12.7543 19.7298C12.6068 19.5823 12.5063 19.3944 12.4656 19.1898C12.4249 18.9852 12.4458 18.7732 12.5256 18.5804C12.6055 18.3877 12.7406 18.223 12.9141 18.1071C13.0875 17.9912 13.2914 17.9294 13.5 17.9294C13.7798 17.9294 14.048 18.0405 14.2458 18.2383C14.4436 18.4361 14.5547 18.7043 14.5547 18.9841Z" fill="#E20000"/>
</svg>
