<svg width="24" height="25" viewBox="0 0 24 25" fill="none" xmlns="http://www.w3.org/2000/svg">
<path d="M2 22.5V4.5C2 3.95 2.196 3.47933 2.588 3.088C2.98 2.69667 3.45067 2.50067 4 2.5H20C20.55 2.5 21.021 2.696 21.413 3.088C21.805 3.48 22.0007 3.95067 22 4.5V16.5C22 17.05 21.8043 17.521 21.413 17.913C21.0217 18.305 20.5507 18.5007 20 18.5H6L2 22.5ZM8 11.5C8.28333 11.5 8.521 11.404 8.713 11.212C8.905 11.02 9.00067 10.7827 9 10.5C8.99933 10.2173 8.90333 9.98 8.712 9.788C8.52067 9.596 8.28333 9.5 8 9.5C7.71667 9.5 7.47933 9.596 7.288 9.788C7.09667 9.98 7.00067 10.2173 7 10.5C6.99933 10.7827 7.09533 11.0203 7.288 11.213C7.48067 11.4057 7.718 11.5013 8 11.5ZM12 11.5C12.2833 11.5 12.521 11.404 12.713 11.212C12.905 11.02 13.0007 10.7827 13 10.5C12.9993 10.2173 12.9033 9.98 12.712 9.788C12.5207 9.596 12.2833 9.5 12 9.5C11.7167 9.5 11.4793 9.596 11.288 9.788C11.0967 9.98 11.0007 10.2173 11 10.5C10.9993 10.7827 11.0953 11.0203 11.288 11.213C11.4807 11.4057 11.718 11.5013 12 11.5ZM16 11.5C16.2833 11.5 16.521 11.404 16.713 11.212C16.905 11.02 17.0007 10.7827 17 10.5C16.9993 10.2173 16.9033 9.98 16.712 9.788C16.5207 9.596 16.2833 9.5 16 9.5C15.7167 9.5 15.4793 9.596 15.288 9.788C15.0967 9.98 15.0007 10.2173 15 10.5C14.9993 10.7827 15.0953 11.0203 15.288 11.213C15.4807 11.4057 15.718 11.5013 16 11.5Z" fill="#FFE681"/>
</svg>
