<svg width="29" height="29" viewBox="0 0 29 29" fill="none" xmlns="http://www.w3.org/2000/svg">
<path d="M20.6023 24.505C19.4182 25.6529 18.1252 25.4717 16.8807 24.9279C15.5636 24.3721 14.3552 24.3479 12.9657 24.9279C11.2257 25.6771 10.3073 25.4596 9.26816 24.505C3.37149 18.4271 4.24149 9.17125 10.9357 8.83292C12.5669 8.9175 13.7027 9.72708 14.6573 9.79958C16.0832 9.50958 17.4486 8.67583 18.9711 8.78458C20.7957 8.92958 22.1732 9.65458 23.0794 10.9596C19.3094 13.2192 20.2036 18.1854 23.6594 19.575C22.9707 21.3875 22.0765 23.1879 20.5902 24.5171L20.6023 24.505ZM14.5365 8.76042C14.3552 6.06583 16.5423 3.8425 19.0557 3.625C19.4061 6.7425 16.2282 9.0625 14.5365 8.76042Z" fill="black"/>
</svg>
