<svg width="7" height="12" viewBox="0 0 7 12" fill="none" xmlns="http://www.w3.org/2000/svg">
  <path d="M4.88027 6.00507C4.62775 6.20205 4.4622 6.30683 4.32704 6.44095C3.01731 7.74334 1.71387 9.05202 0.40624 10.3576C0.1925 10.5713 0.00913048 10.7882 0.0101798 11.1193C0.0112314 11.4692 0.157917 11.7228 0.456544 11.8884C0.760396 12.057 1.06111 12.0309 1.34296 11.8349C1.4425 11.7658 1.52737 11.6767 1.61433 11.5908C3.21639 9.98873 4.80483 8.37305 6.42784 6.793C6.94335 6.29111 6.92344 5.68759 6.43832 5.214C4.8174 3.63184 3.22687 2.01826 1.62691 0.41406C1.32934 0.116514 1.0192 -0.116056 0.565514 0.0621483C0.0311408 0.271601 -0.16794 0.883523 0.157916 1.35501C0.255356 1.4965 0.38739 1.61589 0.509966 1.73946C1.79036 3.02196 3.07075 4.30444 4.35533 5.58386C4.47792 5.70645 4.62671 5.80284 4.88132 6.00611L4.88027 6.00507Z" fill="currentColor"/>
</svg>