<svg width="27" height="27" viewBox="0 0 27 27" fill="none" xmlns="http://www.w3.org/2000/svg">
<path fill-rule="evenodd" clip-rule="evenodd" d="M12.6441 0.0247311L11.9927 0.0922311C8.83205 0.407794 5.64774 2.03792 3.49449 4.44429C1.11343 7.10548 -0.0965103 10.4079 0.0148647 13.9264C0.208927 20.003 4.38549 25.1482 10.3103 26.613C12.0547 27.0346 13.8654 27.1055 15.6374 26.8216C17.4094 26.5377 19.1074 25.9047 20.6327 24.9592C23.6327 23.09 25.78 20.1188 26.6132 16.6837C26.9035 15.5008 26.971 14.8984 26.971 13.4994C26.971 12.1005 26.9035 11.498 26.6132 10.3151C25.2767 4.85604 20.7812 0.839794 15.1872 0.107419C14.7079 0.0449811 12.9647 -0.0107064 12.6441 0.0247311ZM14.9391 2.63698C16.835 2.88507 18.6332 3.62444 20.1552 4.78179C20.7104 5.19692 21.8022 6.28873 22.2173 6.84392C23.164 8.11123 23.8643 9.60129 24.1816 11.0272C24.5408 12.6558 24.5408 14.3431 24.1816 15.9716C23.4829 19.112 21.2706 21.8998 18.3377 23.3342C17.28 23.8506 16.1491 24.2012 14.9847 24.3737C14.2692 24.4834 12.7302 24.4834 12.0147 24.3737C8.72743 23.8742 5.95318 22.0804 4.20661 19.323C3.77699 18.6107 3.41863 17.8578 3.13674 17.0752C2.73621 15.9262 2.5392 14.7161 2.55455 13.4994C2.55455 11.7461 2.89374 10.251 3.64468 8.70692C4.21843 7.52904 4.8023 6.71567 5.75912 5.75886C6.60649 4.8823 7.6052 4.16599 8.70718 3.64442C10.6394 2.70034 12.8079 2.34978 14.9391 2.63698ZM13.0036 7.23879C12.6256 7.36198 12.4112 7.57798 12.3066 7.93911C12.2459 8.14498 12.2391 8.61579 12.2492 11.5014C12.2627 14.8258 12.2627 14.8275 12.3606 15.0114C12.4906 15.2459 12.6965 15.4292 12.9445 15.5312C13.1672 15.6088 13.8321 15.6088 14.0549 15.5312C14.3028 15.4292 14.5087 15.2459 14.6387 15.0114C14.7366 14.8275 14.7366 14.8258 14.7501 11.5014C14.7636 7.86992 14.7636 7.86654 14.5054 7.56111C14.2962 7.31136 14.0717 7.22867 13.5672 7.21517C13.379 7.20451 13.1902 7.21242 13.0036 7.23879ZM13.1386 17.7688C12.8011 17.8898 12.5204 18.1315 12.3505 18.4472C12.2288 18.7498 12.2139 19.085 12.3083 19.3972C12.4001 19.6413 12.5624 19.8526 12.7745 20.0044C12.9866 20.1561 13.239 20.2414 13.4997 20.2494C14.011 20.2494 14.5324 19.8782 14.6911 19.3972C14.7854 19.085 14.7706 18.7498 14.6489 18.4472C14.509 18.2008 14.3064 17.9958 14.0616 17.8532C13.8659 17.7519 13.3377 17.703 13.1386 17.7688Z" fill="#E20000"/>
</svg>
