<svg width="18" height="4" viewBox="0 0 18 4" fill="none" xmlns="http://www.w3.org/2000/svg">
<path d="M2.27344 3.8125C1.75781 3.8125 1.3151 3.63021 0.945313 3.26562C0.580729 2.89583 0.398438 2.45312 0.398438 1.9375C0.398438 1.42708 0.580729 0.989583 0.945313 0.625C1.3151 0.260417 1.75781 0.0781248 2.27344 0.0781248C2.77344 0.0781248 3.21094 0.260417 3.58594 0.625C3.96094 0.989583 4.14844 1.42708 4.14844 1.9375C4.14844 2.28125 4.0599 2.59635 3.88281 2.88281C3.71094 3.16406 3.48438 3.39062 3.20313 3.5625C2.92188 3.72917 2.61198 3.8125 2.27344 3.8125ZM8.82617 3.8125C8.31055 3.8125 7.86784 3.63021 7.49805 3.26562C7.13346 2.89583 6.95117 2.45312 6.95117 1.9375C6.95117 1.42708 7.13346 0.989583 7.49805 0.625C7.86784 0.260417 8.31055 0.0781248 8.82617 0.0781248C9.32617 0.0781248 9.76367 0.260417 10.1387 0.625C10.5137 0.989583 10.7012 1.42708 10.7012 1.9375C10.7012 2.28125 10.6126 2.59635 10.4355 2.88281C10.2637 3.16406 10.0371 3.39062 9.75586 3.5625C9.47461 3.72917 9.16471 3.8125 8.82617 3.8125ZM15.3789 3.8125C14.8633 3.8125 14.4206 3.63021 14.0508 3.26562C13.6862 2.89583 13.5039 2.45312 13.5039 1.9375C13.5039 1.42708 13.6862 0.989583 14.0508 0.625C14.4206 0.260417 14.8633 0.0781248 15.3789 0.0781248C15.8789 0.0781248 16.3164 0.260417 16.6914 0.625C17.0664 0.989583 17.2539 1.42708 17.2539 1.9375C17.2539 2.28125 17.1654 2.59635 16.9883 2.88281C16.8164 3.16406 16.5898 3.39062 16.3086 3.5625C16.0273 3.72917 15.7174 3.8125 15.3789 3.8125Z" fill="black" fill-opacity="0.5"/>
</svg>
