<svg width="26" height="24" viewBox="0 0 26 24" fill="none" xmlns="http://www.w3.org/2000/svg">
<path d="M11.3804 21.8823L12.6176 23.1195L23.1176 12.6195C25.8704 9.86678 25.8704 5.38503 23.1176 2.63228C20.3631 -0.122219 15.8849 -0.122219 13.1304 2.63228L1.75538 14.0073C-0.516117 16.2788 -0.516117 19.973 1.75538 22.2445C2.88938 23.3785 4.38213 23.949 5.87488 23.949C7.36763 23.949 8.85863 23.3803 9.99438 22.2445L20.4944 11.7445C21.3606 10.8783 21.8366 9.72678 21.8366 8.50178C21.8366 7.27678 21.3606 6.12528 20.4926 5.25728C18.7601 3.52478 15.7379 3.52478 14.0054 5.25728L4.38038 14.8823L5.61763 16.1195L15.2426 6.49453C16.3119 5.42528 18.1861 5.42528 19.2554 6.49453C19.7909 7.03003 20.0866 7.74228 20.0866 8.50178C20.0866 9.26128 19.7909 9.97353 19.2554 10.5073L8.75538 21.0073C7.16638 22.5963 4.58163 22.5963 2.99263 21.0073C1.40363 19.4183 1.40363 16.8335 2.99263 15.2445L14.3676 3.86953C16.4396 1.79753 19.8084 1.79753 21.8804 3.86953C23.9524 5.94153 23.9524 9.31028 21.8804 11.3823L11.3804 21.8823Z" fill="black" fill-opacity="0.5"/>
</svg>
