<svg width="24" height="25" viewBox="0 0 24 25" fill="none" xmlns="http://www.w3.org/2000/svg">
<path d="M22.501 12.7336C22.501 11.8702 22.4296 11.2402 22.2748 10.5869H12.2153V14.4835H18.12C18.001 15.4519 17.3582 16.9102 15.9296 17.8902L15.9096 18.0206L19.0902 20.4354L19.3106 20.4569C21.3343 18.6252 22.501 15.9302 22.501 12.7336Z" fill="#4285F4"/>
<path d="M12.214 22.9996C15.1068 22.9996 17.5353 22.0662 19.3092 20.4562L15.9282 17.8895C15.0235 18.5078 13.8092 18.9395 12.214 18.9395C9.38069 18.9395 6.97596 17.1079 6.11874 14.5762L5.99309 14.5866L2.68583 17.095L2.64258 17.2128C4.40446 20.6428 8.0235 22.9996 12.214 22.9996Z" fill="#34A853"/>
<path d="M6.12046 14.5765C5.89428 13.9232 5.76337 13.2231 5.76337 12.4998C5.76337 11.7764 5.89428 11.0765 6.10856 10.4231L6.10257 10.284L2.75386 7.73535L2.64429 7.78642C1.91814 9.20977 1.50146 10.8081 1.50146 12.4998C1.50146 14.1915 1.91814 15.7897 2.64429 17.2131L6.12046 14.5765Z" fill="#FBBC05"/>
<path d="M12.2141 6.05997C14.2259 6.05997 15.583 6.91163 16.3569 7.62335L19.3807 4.73C17.5236 3.03834 15.1069 2 12.2141 2C8.02353 2 4.40447 4.35665 2.64258 7.78662L6.10686 10.4233C6.97598 7.89166 9.38073 6.05997 12.2141 6.05997Z" fill="#EB4335"/>
</svg>
