<svg width="3" height="12" viewBox="0 0 3 12" fill="none" xmlns="http://www.w3.org/2000/svg">
<path d="M1.5 7C2.05228 7 2.5 6.55228 2.5 6C2.5 5.44772 2.05228 5 1.5 5C0.947715 5 0.5 5.44772 0.5 6C0.5 6.55228 0.947715 7 1.5 7Z" fill="black"/>
<path d="M1.5 2C2.05228 2 2.5 1.55228 2.5 1C2.5 0.447715 2.05228 0 1.5 0C0.947715 0 0.5 0.447715 0.5 1C0.5 1.55228 0.947715 2 1.5 2Z" fill="black"/>
<path d="M1.5 12C2.05228 12 2.5 11.5523 2.5 11C2.5 10.4477 2.05228 10 1.5 10C0.947715 10 0.5 10.4477 0.5 11C0.5 11.5523 0.947715 12 1.5 12Z" fill="black"/>
</svg>
