<svg width="21" height="20" viewBox="0 0 21 20" fill="none" xmlns="http://www.w3.org/2000/svg">
<path d="M10.5 18C6.08172 18 2.5 14.4183 2.5 10H0.5C0.5 15.5228 4.97715 20 10.5 20V18ZM10.5 2C14.9183 2 18.5 5.58172 18.5 10H20.5C20.5 4.47715 16.0228 0 10.5 0V2ZM2.5 10C2.5 7.79058 3.39434 5.79196 4.84315 4.34315L3.42893 2.92893C1.62038 4.73748 0.5 7.23885 0.5 10H2.5ZM4.84315 4.34315C6.29196 2.89434 8.29058 2 10.5 2V0C7.73885 0 5.23748 1.12038 3.42893 2.92893L4.84315 4.34315ZM3.42893 4.34315L16.1569 17.0711L17.5711 15.6569L4.84315 2.92893L3.42893 4.34315ZM18.5 10C18.5 12.2094 17.6057 14.208 16.1569 15.6569L17.5711 17.0711C19.3796 15.2625 20.5 12.7611 20.5 10H18.5ZM16.1569 15.6569C14.708 17.1057 12.7094 18 10.5 18V20C13.2611 20 15.7625 18.8796 17.5711 17.0711L16.1569 15.6569Z" fill="#FF5555"/>
</svg>
