<svg width="20" height="21" viewBox="0 0 20 21" fill="none" xmlns="http://www.w3.org/2000/svg">
<path d="M14.375 14.375H5.45313L3.27344 2.39063C3.24793 2.2471 3.17307 2.11701 3.06179 2.02285C2.95051 1.9287 2.80982 1.8764 2.66406 1.875H1.25" stroke="white" stroke-opacity="0.7" stroke-width="2" stroke-linecap="round" stroke-linejoin="round"/>
<path d="M6.25 19.5234C7.11294 19.5234 7.8125 18.8239 7.8125 17.9609C7.8125 17.098 7.11294 16.3984 6.25 16.3984C5.38706 16.3984 4.6875 17.098 4.6875 17.9609C4.6875 18.8239 5.38706 19.5234 6.25 19.5234Z" stroke="white" stroke-opacity="0.7" stroke-width="2" stroke-linecap="round" stroke-linejoin="round"/>
<path d="M14.375 19.5234C15.2379 19.5234 15.9375 18.8239 15.9375 17.9609C15.9375 17.098 15.2379 16.3984 14.375 16.3984C13.5121 16.3984 12.8125 17.098 12.8125 17.9609C12.8125 18.8239 13.5121 19.5234 14.375 19.5234Z" stroke="white" stroke-opacity="0.7" stroke-width="2" stroke-linecap="round" stroke-linejoin="round"/>
<path d="M6.9082 11.25H16.7207C17.0129 11.2509 17.296 11.1488 17.5203 10.9616C17.7446 10.7744 17.8958 10.5142 17.9473 10.2266L18.9004 5H5.77539" stroke="white" stroke-opacity="0.7" stroke-width="2" stroke-linecap="round" stroke-linejoin="round"/>
</svg>
