<svg width="48" height="48" viewBox="0 0 48 48" fill="none" xmlns="http://www.w3.org/2000/svg">
<circle cx="24" cy="24" r="24" fill="#D4A007" fill-opacity="0.4"/>
<g clip-path="url(#clip0_3739_54420)">
<path opacity="0.2" d="M23.25 21.75C23.25 22.4917 23.0301 23.2167 22.618 23.8334C22.206 24.4501 21.6203 24.9307 20.9351 25.2145C20.2498 25.4984 19.4958 25.5726 18.7684 25.4279C18.041 25.2833 17.3728 24.9261 16.8484 24.4017C16.3239 23.8772 15.9668 23.209 15.8221 22.4816C15.6774 21.7542 15.7516 21.0002 16.0355 20.3149C16.3193 19.6297 16.7999 19.044 17.4166 18.632C18.0333 18.2199 18.7583 18 19.5 18C20.4946 18 21.4484 18.3951 22.1517 19.0983C22.8549 19.8016 23.25 20.7554 23.25 21.75Z" fill="#D4A007"/>
<path d="M25.4998 19.5C25.4998 19.3011 25.5789 19.1103 25.7195 18.9697C25.8602 18.829 26.0509 18.75 26.2498 18.75H35.2498C35.4488 18.75 35.6395 18.829 35.7802 18.9697C35.9208 19.1103 35.9998 19.3011 35.9998 19.5C35.9998 19.6989 35.9208 19.8897 35.7802 20.0303C35.6395 20.171 35.4488 20.25 35.2498 20.25H26.2498C26.0509 20.25 25.8602 20.171 25.7195 20.0303C25.5789 19.8897 25.4998 19.6989 25.4998 19.5ZM35.2498 23.25H26.2498C26.0509 23.25 25.8602 23.329 25.7195 23.4697C25.5789 23.6103 25.4998 23.8011 25.4998 24C25.4998 24.1989 25.5789 24.3897 25.7195 24.5303C25.8602 24.671 26.0509 24.75 26.2498 24.75H35.2498C35.4488 24.75 35.6395 24.671 35.7802 24.5303C35.9208 24.3897 35.9998 24.1989 35.9998 24C35.9998 23.8011 35.9208 23.6103 35.7802 23.4697C35.6395 23.329 35.4488 23.25 35.2498 23.25ZM35.2498 27.75H28.4998C28.3009 27.75 28.1102 27.829 27.9695 27.9697C27.8289 28.1103 27.7498 28.3011 27.7498 28.5C27.7498 28.6989 27.8289 28.8897 27.9695 29.0303C28.1102 29.171 28.3009 29.25 28.4998 29.25H35.2498C35.4488 29.25 35.6395 29.171 35.7802 29.0303C35.9208 28.8897 35.9998 28.6989 35.9998 28.5C35.9998 28.3011 35.9208 28.1103 35.7802 27.9697C35.6395 27.829 35.4488 27.75 35.2498 27.75ZM26.2264 29.8125C26.2509 29.9079 26.2564 30.0072 26.2425 30.1048C26.2287 30.2023 26.1957 30.2961 26.1456 30.3809C26.0954 30.4657 26.0291 30.5398 25.9503 30.599C25.8715 30.6581 25.7818 30.7011 25.6864 30.7256C25.6253 30.7421 25.5622 30.7503 25.4989 30.75C25.3326 30.7501 25.1709 30.6949 25.0394 30.593C24.9079 30.4912 24.8139 30.3486 24.7723 30.1875C24.1948 27.9431 21.928 26.25 19.4989 26.25C17.0698 26.25 14.803 27.9422 14.2255 30.1875C14.1757 30.3802 14.0515 30.5452 13.8801 30.6463C13.7087 30.7474 13.5041 30.7763 13.3114 30.7266C13.1187 30.6768 12.9537 30.5526 12.8526 30.3812C12.7515 30.2098 12.7226 30.0052 12.7723 29.8125C13.2964 27.7772 14.8198 26.1291 16.753 25.3125C16.0086 24.7392 15.4624 23.9473 15.1909 23.0478C14.9194 22.1483 14.9362 21.1865 15.239 20.2971C15.5419 19.4076 16.1155 18.6353 16.8794 18.0884C17.6434 17.5415 18.5594 17.2474 19.4989 17.2474C20.4384 17.2474 21.3544 17.5415 22.1184 18.0884C22.8823 18.6353 23.4559 19.4076 23.7588 20.2971C24.0616 21.1865 24.0784 22.1483 23.8069 23.0478C23.5354 23.9473 22.9892 24.7392 22.2448 25.3125C24.1789 26.1291 25.7023 27.7772 26.2264 29.8125ZM19.4998 24.75C20.0932 24.75 20.6732 24.5741 21.1666 24.2444C21.6599 23.9148 22.0444 23.4462 22.2715 22.8981C22.4985 22.3499 22.558 21.7467 22.4422 21.1647C22.3264 20.5828 22.0407 20.0482 21.6212 19.6287C21.2016 19.2091 20.6671 18.9234 20.0851 18.8076C19.5032 18.6919 18.9 18.7513 18.3518 18.9784C17.8036 19.2054 17.3351 19.5899 17.0054 20.0833C16.6758 20.5766 16.4998 21.1567 16.4998 21.75C16.4998 22.5456 16.8159 23.3087 17.3785 23.8713C17.9411 24.4339 18.7042 24.75 19.4998 24.75Z" fill="#D4A007"/>
</g>
<defs>
<clipPath id="clip0_3739_54420">
<rect width="24" height="24" fill="white" transform="translate(12 12)"/>
</clipPath>
</defs>
</svg>
