<svg width="14" height="11" viewBox="0 0 14 11" fill="none" xmlns="http://www.w3.org/2000/svg">
<path d="M13.4312 0.908473C13.3422 0.81865 13.2362 0.747356 13.1194 0.698702C13.0026 0.650049 12.8773 0.625 12.7508 0.625C12.6243 0.625 12.4991 0.650049 12.3823 0.698702C12.2655 0.747356 12.1595 0.81865 12.0704 0.908473L4.93083 8.05764L1.93124 5.04847C1.83874 4.95912 1.72955 4.88886 1.6099 4.84171C1.49024 4.79455 1.36248 4.77143 1.23389 4.77365C1.1053 4.77588 0.978403 4.80341 0.860453 4.85467C0.742503 4.90594 0.635805 4.97993 0.546452 5.07243C0.457098 5.16493 0.386839 5.27413 0.339685 5.39378C0.292531 5.51343 0.269406 5.6412 0.271631 5.76979C0.273856 5.89838 0.301386 6.02527 0.352651 6.14322C0.403916 6.26117 0.47791 6.36787 0.57041 6.45722L4.25041 10.1372C4.3395 10.227 4.44549 10.2983 4.56227 10.347C4.67906 10.3956 4.80432 10.4207 4.93083 10.4207C5.05734 10.4207 5.1826 10.3956 5.29938 10.347C5.41616 10.2983 5.52215 10.227 5.61124 10.1372L13.4312 2.31722C13.5285 2.22748 13.6062 2.11857 13.6593 1.99734C13.7123 1.87611 13.7398 1.7452 13.7398 1.61285C13.7398 1.4805 13.7123 1.34959 13.6593 1.22836C13.6062 1.10713 13.5285 0.998214 13.4312 0.908473Z" fill="#3479E9"/>
</svg>
