<svg width="26" height="28" viewBox="0 0 26 28" fill="none" xmlns="http://www.w3.org/2000/svg">
  <path d="M5.5 9C6.49456 9 7.44839 8.60491 8.15165 7.90165C8.85491 7.19839 9.25 6.24456 9.25 5.25C9.25 4.25544 8.85491 3.30161 8.15165 2.59835C7.44839 1.89509 6.49456 1.5 5.5 1.5C4.50544 1.5 3.55161 1.89509 2.84835 2.59835C2.14509 3.30161 1.75 4.25544 1.75 5.25C1.75 6.24456 2.14509 7.19839 2.84835 7.90165C3.55161 8.60491 4.50544 9 5.5 9ZM5.5 9V19M5.5 19C4.50544 19 3.55161 19.3951 2.84835 20.0983C2.14509 20.8016 1.75 21.7554 1.75 22.75C1.75 23.7446 2.14509 24.6984 2.84835 25.4017C3.55161 26.1049 4.50544 26.5 5.5 26.5C6.49456 26.5 7.44839 26.1049 8.15165 25.4017C8.85491 24.6984 9.25 23.7446 9.25 22.75C9.25 21.7554 8.85491 20.8016 8.15165 20.0983C7.44839 19.3951 6.49456 19 5.5 19ZM24.25 5.25C24.25 6.24456 23.8549 7.19839 23.1517 7.90165C22.4484 8.60491 21.4946 9 20.5 9C19.5054 9 18.5516 8.60491 17.8483 7.90165C17.1451 7.19839 16.75 6.24456 16.75 5.25C16.75 4.25544 17.1451 3.30161 17.8483 2.59835C18.5516 1.89509 19.5054 1.5 20.5 1.5C21.4946 1.5 22.4484 1.89509 23.1517 2.59835C23.8549 3.30161 24.25 4.25544 24.25 5.25Z" stroke="#B3B4B2" stroke-width="1.875" stroke-linecap="round" stroke-linejoin="round"/>
  <path d="M5.5 14H15.5C17.25 14 18.125 14 18.7938 13.6588C19.3814 13.3592 19.8592 12.8814 20.1587 12.2938C20.5 11.625 20.5 10.75 20.5 9" stroke="#B3B4B2" stroke-width="1.875" stroke-linecap="round" stroke-linejoin="round"/>
</svg>